<svg width="105" height="34" viewBox="0 0 105 34" fill="none" xmlns="http://www.w3.org/2000/svg">
<g clip-path="url(#clip0_64_2)">
<path d="M1 13.3006V26.0336C1 29.8651 4.13487 33 7.96638 33H25.9941C29.8256 33 32.9604 29.8651 32.9604 26.0336V13.3006C32.9604 9.46911 29.8256 6.33423 25.9941 6.33423H25.5977V6.33299C25.6795 4.67566 25.1052 2.97589 23.9678 1.75615C23.7038 1.47337 23.4004 1.20683 23.0309 1.09259C22.0402 0.787347 21.2968 1.25864 21.7343 2.18499C22.5564 3.92409 22.0983 6.10452 19.9035 6.3049C19.7949 6.31488 19.5926 6.29553 19.4921 6.3049L16.9802 6.31114L14.4683 6.3049C14.3678 6.29553 14.1656 6.31488 14.057 6.3049C11.8622 6.10452 11.404 3.92409 12.2261 2.18499C12.6637 1.25864 11.9209 0.787347 10.9296 1.09259C10.56 1.20683 10.2567 1.47337 9.99262 1.75615C8.85528 2.97589 8.28099 4.67566 8.36276 6.33299V6.33423H7.96638C4.13487 6.33423 1 9.46911 1 13.3006Z" fill="url(#paint0_radial_64_2)" stroke="#282123" stroke-width="1.5"/>
<path d="M14.137 23.6189C13.3078 22.7897 14.5509 19.6397 17.0419 19.6398C19.533 19.6398 20.6407 22.5619 20.01 23.5505C19.3793 24.5391 17.0276 22.9765 17.0276 22.9765C17.0276 22.9765 14.9663 24.448 14.137 23.6189Z" fill="#8F2018"/>
<path fill-rule="evenodd" clip-rule="evenodd" d="M13.6962 20.9412C14.3029 19.8985 15.4489 18.8898 17.042 18.8898C18.6178 18.8898 19.7337 19.8226 20.3407 20.8403C20.6441 21.3489 20.838 21.9037 20.9062 22.425C20.9717 22.9251 20.9334 23.4975 20.6423 23.9539C20.2898 24.5064 19.7134 24.6386 19.2598 24.6277C18.8184 24.617 18.3677 24.4764 18.0034 24.3305C17.6301 24.1809 17.2864 24.0005 17.0393 23.8602C16.818 23.9925 16.5189 24.1571 16.1877 24.2984C15.8431 24.4456 15.4194 24.587 14.9901 24.6166C14.5562 24.6464 14.0225 24.565 13.6067 24.1492C13.1683 23.7108 13.0965 23.0822 13.1441 22.5769C13.1946 22.0414 13.3906 21.4663 13.6962 20.9412ZM17.4426 22.3519L17.4452 22.3536L17.4605 22.3635C17.4748 22.3727 17.497 22.3869 17.5262 22.405C17.5847 22.4414 17.6704 22.4935 17.7758 22.5534C17.989 22.6747 18.2704 22.8216 18.5611 22.938C18.8637 23.0592 19.1191 23.1238 19.296 23.1281C19.3421 23.1292 19.3717 23.1266 19.3896 23.1236C19.4167 23.0601 19.4556 22.8999 19.4189 22.6198C19.3791 22.3152 19.2586 21.9542 19.0525 21.6087C18.6406 20.9181 17.9571 20.3898 17.0419 20.3898C16.144 20.3898 15.423 20.9561 14.9927 21.6956C14.7797 22.0616 14.6647 22.4295 14.6375 22.7178C14.6112 22.9965 14.6721 23.0896 14.6717 23.0925C14.6773 23.0972 14.6869 23.1029 14.707 23.1087C14.7386 23.1178 14.7959 23.1264 14.887 23.1201C15.0773 23.107 15.3245 23.036 15.5988 22.9189C15.8652 22.8052 16.116 22.666 16.3038 22.5522C16.3965 22.4959 16.4712 22.4475 16.5217 22.4139C16.5468 22.3972 16.5658 22.3842 16.5778 22.3759L16.5904 22.3671L16.5921 22.366C16.5922 22.3659 16.5922 22.3659 16.5921 22.366L17.0123 22.066L17.4426 22.3519ZM19.4131 23.1165C19.4137 23.1169 19.4108 23.1188 19.4025 23.1209C19.4084 23.1171 19.4125 23.1161 19.4131 23.1165Z" fill="#282123"/>
<path d="M22.0602 26.9407C22.0602 26.9407 22.2237 27.5668 21.7493 28.5955C21.2855 29.6005 23.6301 28.2697 23.7075 27.319L22.0602 26.9413V26.9407Z" fill="#E1E1E1"/>
<path d="M12.0014 26.9407C12.0014 26.9407 11.8378 27.5668 12.3122 28.5955C12.776 29.6005 10.4314 28.2697 10.354 27.319L12.0014 26.9413V26.9407Z" fill="#E1E1E1"/>
<path d="M26.7974 25.483C27.2756 26.0317 27.0072 26.6422 26.3911 26.9412C26.3911 26.9412 25.0665 27.7914 22.4466 26.9412C21.293 26.5667 19.7917 25.9187 17.2823 25.9187H16.7798C14.2704 25.9187 12.7692 26.5667 11.6156 26.9412C8.99572 27.7914 7.67111 26.9412 7.67111 26.9412C7.055 26.6422 6.78658 26.0324 7.26473 25.483" stroke="#282123" stroke-width="1.5" stroke-linecap="round" stroke-linejoin="round"/>
<path d="M27.878 14.2608L20.0592 17.7325C21.0592 20.2325 23.9908 20.7231 25.9344 19.7651C27.878 18.8072 29 16 27.878 14.2608Z" fill="#8F2018"/>
<path fill-rule="evenodd" clip-rule="evenodd" d="M28.1603 13.3149L28.5083 13.8543C29.2351 14.9809 29.1965 16.3806 28.7595 17.5655C28.321 18.7543 27.4372 19.8606 26.266 20.4379C24.0499 21.5301 20.5709 21.0311 19.3629 18.0111L19.0945 17.3403L28.1603 13.3149ZM21.0981 18.0919C22.0995 19.5295 24.1286 19.819 25.6029 19.0924C26.3752 18.7117 27.0242 17.9355 27.3522 17.0464C27.5875 16.4082 27.635 15.78 27.4987 15.2499L21.0981 18.0919Z" fill="#282123"/>
<path d="M6.25525 14.3049L14.0741 17.7767C13.0741 20.2767 10.1425 20.7672 8.19886 19.8092C6.25525 18.8513 5.13327 16.0441 6.25525 14.3049Z" fill="#8F2018"/>
<path fill-rule="evenodd" clip-rule="evenodd" d="M5.97298 13.3589L5.62502 13.8983C4.8982 15.025 4.93677 16.4247 5.3738 17.6096C5.81229 18.7984 6.69606 19.9047 7.8673 20.4819C10.0834 21.5742 13.5624 21.0752 14.7704 18.0552L15.0388 17.3844L5.97298 13.3589ZM13.0352 18.136C12.0337 19.5736 10.0047 19.8631 8.53043 19.1365C7.75806 18.7558 7.10904 17.9795 6.78113 17.0905C6.54574 16.4523 6.49828 15.8241 6.63459 15.2939L13.0352 18.136Z" fill="#282123"/>
<path d="M45.7339 9.5V25.5H42.3511V9.5H45.7339ZM48.4546 25.5V13.5H51.6265V15.6172H51.7671C52.0171 14.9141 52.4338 14.3594 53.0171 13.9531C53.6004 13.5469 54.2983 13.3438 55.1108 13.3438C55.9338 13.3438 56.6343 13.5495 57.2124 13.9609C57.7905 14.3672 58.1759 14.9193 58.3687 15.6172H58.4937C58.7384 14.9297 59.1812 14.3802 59.8218 13.9687C60.4676 13.5521 61.2306 13.3438 62.1108 13.3438C63.2306 13.3438 64.1395 13.7005 64.8374 14.4141C65.5405 15.1224 65.8921 16.1276 65.8921 17.4297V25.5H62.5718V18.0859C62.5718 17.4193 62.3947 16.9193 62.0405 16.5859C61.6864 16.2526 61.2437 16.0859 60.7124 16.0859C60.1082 16.0859 59.6369 16.2786 59.2983 16.6641C58.9598 17.0443 58.7905 17.5469 58.7905 18.1719V25.5H55.564V18.0156C55.564 17.4271 55.3947 16.9583 55.0562 16.6094C54.7228 16.2604 54.2827 16.0859 53.7358 16.0859C53.366 16.0859 53.0327 16.1797 52.7358 16.3672C52.4442 16.5495 52.2124 16.8073 52.0405 17.1406C51.8687 17.4687 51.7827 17.8542 51.7827 18.2969V25.5H48.4546ZM68.521 30V13.5H71.8022V15.5156H71.9507C72.0965 15.1927 72.3075 14.8646 72.5835 14.5312C72.8647 14.1927 73.2293 13.9115 73.6772 13.6875C74.1304 13.4583 74.6929 13.3438 75.3647 13.3438C76.2397 13.3438 77.047 13.5729 77.7866 14.0313C78.5262 14.4844 79.1174 15.1693 79.5601 16.0859C80.0028 16.9974 80.2241 18.1406 80.2241 19.5156C80.2241 20.8542 80.008 21.9844 79.5757 22.9062C79.1486 23.8229 78.5653 24.5182 77.8257 24.9922C77.0913 25.4609 76.2684 25.6953 75.3569 25.6953C74.7111 25.6953 74.1616 25.5885 73.7085 25.375C73.2606 25.1615 72.8934 24.8932 72.6069 24.5703C72.3205 24.2422 72.1017 23.9115 71.9507 23.5781H71.8491V30H68.521ZM71.7788 19.5C71.7788 20.2135 71.8778 20.8359 72.0757 21.3672C72.2736 21.8984 72.5601 22.3125 72.9351 22.6094C73.3101 22.901 73.7658 23.0469 74.3022 23.0469C74.8439 23.0469 75.3022 22.8984 75.6772 22.6016C76.0522 22.2995 76.3361 21.8828 76.5288 21.3516C76.7267 20.8151 76.8257 20.1979 76.8257 19.5C76.8257 18.8073 76.7293 18.1979 76.5366 17.6719C76.3439 17.1458 76.0601 16.7344 75.6851 16.4375C75.3101 16.1406 74.8491 15.9922 74.3022 15.9922C73.7606 15.9922 73.3022 16.1354 72.9272 16.4219C72.5575 16.7083 72.2736 17.1146 72.0757 17.6406C71.8778 18.1667 71.7788 18.7865 71.7788 19.5ZM90.1382 20.3906V13.5H93.4663V25.5H90.271V23.3203H90.146C89.8752 24.0234 89.4246 24.5885 88.7944 25.0156C88.1694 25.4427 87.4064 25.6563 86.5054 25.6563C85.7033 25.6563 84.9976 25.474 84.3882 25.1094C83.7788 24.7448 83.3022 24.2266 82.9585 23.5547C82.62 22.8828 82.4481 22.0781 82.4429 21.1406V13.5H85.771V20.5469C85.7762 21.2552 85.9663 21.8151 86.3413 22.2266C86.7163 22.638 87.2189 22.8437 87.8491 22.8437C88.2502 22.8437 88.6252 22.7526 88.9741 22.5703C89.3231 22.3828 89.6043 22.1068 89.8179 21.7422C90.0366 21.3776 90.1434 20.9271 90.1382 20.3906ZM102.511 13.5V16H95.2847V13.5H102.511ZM96.9253 10.625H100.253V21.8125C100.253 22.1198 100.3 22.3594 100.394 22.5312C100.488 22.6979 100.618 22.8151 100.785 22.8828C100.957 22.9505 101.154 22.9844 101.378 22.9844C101.535 22.9844 101.691 22.9714 101.847 22.9453C102.003 22.9141 102.123 22.8906 102.207 22.875L102.73 25.3516C102.563 25.4036 102.329 25.4635 102.027 25.5313C101.725 25.6042 101.358 25.6484 100.925 25.6641C100.123 25.6953 99.4201 25.5885 98.8159 25.3437C98.217 25.099 97.7508 24.7187 97.4175 24.2031C97.0841 23.6875 96.9201 23.0365 96.9253 22.25V10.625Z" fill="#150201"/>
</g>
<defs>
<radialGradient id="paint0_radial_64_2" cx="0" cy="0" r="1" gradientUnits="userSpaceOnUse" gradientTransform="translate(16.9802 17.0001) rotate(-90) scale(15.9999 15.9999)">
<stop stop-color="#CC2910"/>
<stop offset="1" stop-color="#D73E26"/>
</radialGradient>
<clipPath id="clip0_64_2">
<rect width="104.96" height="34" fill="white"/>
</clipPath>
</defs>
</svg>
