<svg width="125" height="36" viewBox="0 0 125 36" fill="none" xmlns="http://www.w3.org/2000/svg">
<g clip-path="url(#clip0_3_18)">
<path d="M0 14.3006V27.0336C0 30.8651 3.13487 34 6.96638 34H24.9941C28.8256 34 31.9604 30.8651 31.9604 27.0336V14.3006C31.9604 10.4691 28.8256 7.33423 24.9941 7.33423H24.5977V7.33299C24.6795 5.67566 24.1052 3.97589 22.9678 2.75615C22.7038 2.47337 22.4004 2.20683 22.0309 2.09259C21.0402 1.78735 20.2968 2.25864 20.7343 3.18499C21.5564 4.92409 21.0983 7.10452 18.9035 7.3049C18.7949 7.31488 18.5926 7.29553 18.4921 7.3049L15.9802 7.31114L13.4683 7.3049C13.3678 7.29553 13.1656 7.31488 13.057 7.3049C10.8622 7.10452 10.404 4.92409 11.2261 3.18499C11.6637 2.25864 10.9209 1.78735 9.92959 2.09259C9.56005 2.20683 9.25667 2.47337 8.99262 2.75615C7.85528 3.97589 7.28099 5.67566 7.36276 7.33299V7.33423H6.96638C3.13487 7.33423 0 10.4691 0 14.3006Z" fill="url(#paint0_linear_3_18)"/>
<path d="M21.0602 27.9407C21.0602 27.9407 21.2237 28.5668 20.7493 29.5955C20.2855 30.6005 22.6301 29.2697 22.7075 28.319L21.0602 27.9413V27.9407Z" fill="#F27AA6"/>
<path d="M11.0014 27.9407C11.0014 27.9407 10.8378 28.5668 11.3122 29.5955C11.776 30.6005 9.43145 29.2697 9.35404 28.319L11.0014 27.9413V27.9407Z" fill="#F27AA6"/>
<path d="M25.7974 26.483C26.2756 27.0317 26.0072 27.6422 25.3911 27.9412C25.3911 27.9412 24.0665 28.7914 21.4466 27.9412C20.293 27.5667 18.7917 26.9187 16.2823 26.9187H15.7798C13.2704 26.9187 11.7692 27.5667 10.6156 27.9412C7.99572 28.7914 6.67111 27.9412 6.67111 27.9412C6.055 27.6422 5.78658 27.0324 6.26473 26.483" stroke="#282123" stroke-width="1.21" stroke-linecap="round" stroke-linejoin="round"/>
<path d="M16.0308 20.6159V23.9761C16.0308 23.9761 15.1188 24.5348 14.2461 24.8132C13.4452 25.0691 12.7024 24.684 12.9352 23.4386C13.2199 21.9167 14.8479 20.7931 16.0308 20.6152V20.6159Z" fill="#781940"/>
<path d="M16.0308 20.6159V23.9761C16.0308 23.9761 16.9428 24.5348 17.8154 24.8132C18.6163 25.0691 19.3592 24.684 19.1263 23.4386C18.8417 21.9167 17.2137 20.7931 16.0308 20.6152V20.6159Z" fill="#781940"/>
<path d="M17.7337 24.199C17.4386 24.199 17.1993 24.0439 17.1993 23.8525C17.1993 23.6612 17.4386 23.5061 17.7337 23.5061C18.0288 23.5061 18.268 23.6612 18.268 23.8525C18.268 24.0439 18.0288 24.199 17.7337 24.199Z" fill="#282123"/>
<path d="M14.175 24.1928C13.8799 24.1928 13.6406 24.039 13.6406 23.8494C13.6406 23.6598 13.8799 23.5061 14.175 23.5061C14.4701 23.5061 14.7093 23.6598 14.7093 23.8494C14.7093 24.039 14.4701 24.1928 14.175 24.1928Z" fill="#282123"/>
<path d="M13.0108 19.7383C12.0763 21.8644 9.56816 22.8182 7.40895 21.8688C5.24975 20.9193 4.25661 18.4268 5.19107 16.3013" fill="#282123"/>
<path d="M5.38521 16.8063C3.40329 15.996 6.40832 12.652 10.5757 14.3562C14.4846 15.9542 14.5451 20.551 12.5626 19.7408C9.95622 18.6754 7.56376 17.6973 5.38521 16.8063Z" fill="#781940"/>
<path d="M19.0508 19.7383C19.9853 21.8644 22.4934 22.8182 24.6526 21.8688C26.8118 20.9193 27.805 18.4268 26.8705 16.3013" fill="#282123"/>
<path d="M26.6764 16.8063C28.6583 15.996 25.6532 12.652 21.4859 14.3562C17.577 15.9542 17.5164 20.551 19.499 19.7408C22.1053 18.6754 24.4978 17.6973 26.6764 16.8063Z" fill="#781940"/>
<path d="M44.0514 10.527C42.709 10.527 41.6011 9.49361 41.6011 8.22585C41.6011 6.96875 42.709 5.93537 44.0514 5.93537C45.4043 5.93537 46.5123 6.96875 46.5123 8.22585C46.5123 9.49361 45.4043 10.527 44.0514 10.527ZM41.7715 27.7216V13.9148C41.7715 13.0838 42.219 12.6364 43.0499 12.6364H45.0315C45.8624 12.6364 46.3099 13.0838 46.3099 13.9148V27.7216C46.3099 28.5526 45.8624 29 45.0315 29H43.0499C42.219 29 41.7715 28.5526 41.7715 27.7216ZM49.9454 13.9148C49.9454 13.0838 50.3928 12.6364 51.2238 12.6364H52.9922C53.8232 12.6364 54.2706 13.0838 54.2706 13.9148V15.5234H54.4624C55.1442 13.5952 56.8168 12.4233 59.0221 12.4233C61.2699 12.4233 62.9425 13.6271 63.4645 15.5234H63.635C64.3062 13.6484 66.1705 12.4233 68.5675 12.4233C71.6144 12.4233 73.7238 14.4474 73.7238 17.995V27.7216C73.7238 28.5526 73.2763 29 72.4454 29H70.4745C69.6435 29 69.1961 28.5526 69.1961 27.7216V18.8899C69.1961 17.0682 68.1094 16.1626 66.6606 16.1626C65.0093 16.1626 64.0398 17.3132 64.0398 19.0071V27.7216C64.0398 28.5526 63.5924 29 62.7614 29H60.9184C60.0874 29 59.64 28.5526 59.64 27.7216V18.794C59.64 17.1854 58.6385 16.1626 57.1471 16.1626C55.6343 16.1626 54.4837 17.3665 54.4837 19.1776V27.7216C54.4837 28.5526 54.0363 29 53.2053 29H51.2238C50.3928 29 49.9454 28.5526 49.9454 27.7216V13.9148ZM77.3086 13.9148C77.3086 13.0838 77.7561 12.6364 78.587 12.6364H80.5047C81.3356 12.6364 81.7831 13.0838 81.7831 13.9148V15.3849H81.9855C82.5927 14.0533 83.9031 12.4233 86.641 12.4233C90.2312 12.4233 93.2674 15.2145 93.2674 20.8395C93.2674 26.3153 90.3591 29.2663 86.6304 29.2663C83.9883 29.2663 82.614 27.7429 81.9855 26.3793H81.847V33.858C81.847 34.6889 81.3995 35.1364 80.5686 35.1364H78.587C77.7561 35.1364 77.3086 34.6889 77.3086 33.858V13.9148ZM81.7511 20.8182C81.7511 23.7372 83.0082 25.6548 85.1922 25.6548C87.4187 25.6548 88.6332 23.6733 88.6332 20.8182C88.6332 17.9844 87.44 16.0348 85.1922 16.0348C82.9869 16.0348 81.7511 17.8991 81.7511 20.8182ZM106.787 13.9148C106.787 13.0838 107.234 12.6364 108.065 12.6364H110.047C110.878 12.6364 111.325 13.0838 111.325 13.9148V27.7216C111.325 28.5526 110.878 29 110.047 29H108.246C107.415 29 106.968 28.5526 106.968 27.7216V26.0277H106.797C106.062 27.9453 104.294 29.2131 101.833 29.2131C98.5409 29.2131 96.3037 26.88 96.293 23.0554V13.9148C96.293 13.0838 96.7405 12.6364 97.5714 12.6364H99.553C100.384 12.6364 100.831 13.0838 100.831 13.9148V22.2457C100.842 24.174 101.95 25.3778 103.665 25.3778C105.295 25.3778 106.797 24.2273 106.787 22.0327V13.9148ZM123.659 14.767C123.659 15.598 123.212 16.0455 122.381 16.0455H120.58V23.9716C120.58 25.2287 121.209 25.5696 122.114 25.5696H122.221C122.903 25.5376 123.318 25.7614 123.457 26.4325L123.702 27.5724C123.872 28.3821 123.552 28.9574 122.743 29.0959C122.391 29.1598 121.965 29.2024 121.496 29.2237C118.204 29.3622 116.02 27.7749 116.042 24.5682V16.0455H115.083C114.252 16.0455 113.805 15.598 113.805 14.767V13.9148C113.805 13.0838 114.252 12.6364 115.083 12.6364H116.042V9.99432C116.042 9.16335 116.489 8.71591 117.32 8.71591H119.302C120.133 8.71591 120.58 9.16335 120.58 9.99432V12.6364H122.381C123.212 12.6364 123.659 13.0838 123.659 13.9148V14.767Z" fill="#150201"/>
</g>
<defs>
<linearGradient id="paint0_linear_3_18" x1="15.9802" y1="34" x2="15.9802" y2="2.00021" gradientUnits="userSpaceOnUse">
<stop stop-color="#9A3458"/>
<stop offset="1" stop-color="#BF1E53"/>
</linearGradient>
<clipPath id="clip0_3_18">
<rect width="124.96" height="36" fill="white"/>
</clipPath>
</defs>
</svg>
