<svg width="836" height="179" viewBox="0 0 836 179" fill="none" xmlns="http://www.w3.org/2000/svg">
<path d="M111.887 43.2191L94.0002 33.7061L68.6801 142.526L70.7707 149.023L41.7339 142.526L31.9775 149.023L37.5526 158.536H142.55L156.023 142.526L130.703 33.7061L111.887 43.2191Z" fill="#A6CDD5"/>
<path d="M99.0506 158.16L88.1328 105.866M111.362 157.464V116.307M123.674 158.16L134.592 105.866M111.5 42.9868C109.642 42.9868 105.044 42.9868 101.141 40.2025C97.2387 37.4181 93.553 33.1643 92.3141 32.0815L69.7815 132.085C68.7749 135.72 67.4586 143.972 71.4076 150.647C73.8783 154.823 78.6087 158.536 89.2943 158.536H111.362H133.43C144.116 158.536 148.846 154.823 151.317 150.647C155.266 143.972 153.95 135.72 152.943 132.085L130.41 32.0815C129.171 33.1643 125.486 37.4181 121.583 40.2025C117.681 42.9868 113.358 42.9868 111.5 42.9868Z" stroke="black" stroke-width="10" stroke-linecap="round" stroke-linejoin="round"/>
<ellipse cx="100.909" cy="63.8694" rx="3.01983" ry="3.01634" fill="black"/>
<ellipse rx="3.01983" ry="3.01634" transform="matrix(-1 0 0 1 121.815 63.8694)" fill="black"/>
<path d="M88.5977 158.536L41.2096 158.768C37.4154 158.923 29.3621 155.984 32.8466 146.935C33.6507 144.847 37.028 140.48 45.3906 142.99C53.7532 145.5 70.4788 149.255 70.4788 149.255" stroke="black" stroke-width="10"/>
<path d="M295.854 88.9338H290.88C272.303 88.9338 263.65 99.7901 263.65 117.642V153.478C263.65 156.239 261.412 158.478 258.65 158.478H245.508C242.746 158.478 240.508 156.239 240.508 153.478V71.676C240.508 68.9146 242.746 66.676 245.508 66.676H260.381C261.798 66.676 262.946 67.8246 262.946 69.2414V69.2414C262.946 72.1923 270.128 74.2371 272.488 72.4653C277.382 68.7908 283.655 66.7713 290.88 66.155C293.631 65.9203 295.877 68.1878 295.877 70.9492V88.911C295.877 88.9236 295.867 88.9338 295.854 88.9338V88.9338Z" fill="black"/>
<path d="M207.785 24C215.689 24 221.571 30.0641 221.571 37.6045C221.571 45.3265 215.689 51.209 207.785 51.209C200.064 51.209 194 45.3265 194 37.6045C194 30.0868 200.064 24 207.785 24ZM201.203 158.478C198.442 158.478 196.203 156.239 196.203 153.478V71.6758C196.203 68.9144 198.442 66.6758 201.203 66.6758H214.391C217.152 66.6758 219.391 68.9144 219.391 71.6758V153.478C219.391 156.239 217.152 158.478 214.391 158.478H201.203Z" fill="black"/>
<path d="M529.424 119.302C530.969 133.678 540.167 143.445 557.222 143.445C567.683 143.445 575.982 139.302 580.917 133.211C581.996 131.879 583.562 130.976 585.276 130.976H597.675C601.179 130.976 603.561 134.491 601.76 137.496C593.496 151.286 577.02 161.251 557.222 161.251C524.632 161.251 505.669 139.583 505.669 111.035C505.669 82.0994 526.563 61 556.064 61C586.156 61 606.278 81.895 606.278 111.398V114.256C606.278 117.018 604.039 119.256 601.278 119.256H529.47C529.445 119.256 529.424 119.277 529.424 119.302V119.302ZM530.348 97.8425C529.529 100.732 531.892 103.381 534.895 103.381H577.744C580.711 103.381 583.064 100.792 582.298 97.925C579.147 86.1342 569.993 78.2838 556.473 78.2838C543.38 78.2838 533.815 85.6195 530.348 97.8425Z" fill="black"/>
<path d="M624.501 158.273C621.74 158.273 619.501 156.035 619.501 153.273V29C619.501 26.2386 621.74 24 624.501 24H637.689C640.45 24 642.689 26.2386 642.689 29V96.3672C642.689 101.076 648.604 103.174 651.571 99.5176L676.867 68.3437C677.816 67.1737 679.242 66.4942 680.749 66.4942H694.206C698.44 66.4942 700.757 71.427 698.055 74.6859L670.009 108.506C668.46 110.374 668.476 113.085 670.047 114.935L699.871 150.036C702.63 153.284 700.322 158.273 696.06 158.273H681.631C680.14 158.273 678.726 157.607 677.776 156.457L651.521 124.663C648.537 121.049 642.666 123.159 642.666 127.847V153.273C642.666 156.035 640.427 158.273 637.666 158.273H624.501Z" fill="black"/>
<path d="M702.896 110.464C702.896 85.5493 721.588 62.4512 753.087 62.4512C784.61 62.4512 803.278 85.5266 803.278 110.464C803.278 135.198 784.587 158.296 753.087 158.296C721.565 158.273 702.896 135.198 702.896 110.464ZM725.426 110.464C725.426 125.295 735.328 139.059 753.087 139.059C770.87 139.059 780.749 125.318 780.749 110.464C780.749 95.6107 770.847 81.6882 753.087 81.6882C735.305 81.6882 725.426 95.6107 725.426 110.464Z" fill="black"/>
<path d="M299.575 114.871C299.575 89.842 318.334 66.6758 349.97 66.6758C381.607 66.6758 400.366 89.8647 400.366 114.871C400.366 139.695 381.607 162.884 349.97 162.884C318.334 162.884 299.575 139.718 299.575 114.871ZM322.195 114.871C322.195 129.77 332.12 143.579 349.97 143.579C367.821 143.579 377.746 129.792 377.746 114.871C377.746 99.9489 367.821 85.981 349.97 85.981C332.12 85.981 322.195 99.9716 322.195 114.871Z" fill="black"/>
<path d="M431.689 158.139H413.501C410.74 158.139 408.501 155.9 408.501 153.139V71.3371C408.501 68.5757 410.74 66.3371 413.501 66.3371H428.437C429.819 66.3371 430.939 67.4574 430.939 68.8394V68.8394C430.939 71.5997 436.581 73.3156 438.728 71.5804C444.521 66.8977 452.533 64.1113 461.463 64.1113C483.537 64.1113 495.869 80.305 495.869 103.108V153.116C495.869 155.878 493.631 158.116 490.869 158.116H477.682C474.92 158.116 472.682 155.878 472.682 153.116V106.969C472.682 93.9095 466.8 84.3477 452.991 84.3477C440.296 84.3477 431.643 93.5461 431.643 106.787V158.094C431.643 158.119 431.664 158.139 431.689 158.139V158.139Z" fill="black"/>
</svg>
